<svg width="24" height="24" viewBox="0 0 24 24" fill="none" xmlns="http://www.w3.org/2000/svg">
<g id="cell_wifi_24px">
<path id="icon/communication/cell_wifi_24px" fill-rule="evenodd" clip-rule="evenodd" d="M4.25497 6.72125L2.96497 5.43125C6.86497 1.52125 13.205 1.52125 17.115 5.43125L15.825 6.72125C12.635 3.53125 7.44497 3.53125 4.25497 6.72125ZM5.03497 21.5012L21.035 5.47125V21.5012H17.035V19.5012H19.035V10.2812L17.035 12.2812V9.48125L5.03497 21.5012ZM17.035 12.2812L9.81497 19.5012H17.035V12.2812ZM8.10497 10.5712L10.035 12.5012L11.965 10.5712C10.895 9.51125 9.17497 9.51125 8.10497 10.5712ZM6.82497 9.29125L5.53497 8.00125C8.01497 5.52125 12.055 5.52125 14.535 8.00125L13.255 9.29125C11.475 7.52125 8.59497 7.52125 6.82497 9.29125Z" fill="currentColor" fill-opacity="1"/>
</g>
</svg>
