<svg width="24" height="24" viewBox="0 0 24 24" fill="none" xmlns="http://www.w3.org/2000/svg">
<g id="hdr_off_24px">
<path id="icon/image/hdr_off_24px" fill-rule="evenodd" clip-rule="evenodd" d="M1.94501 3.00501L3.00501 1.94501L22.055 20.995L20.995 22.055L13.395 14.455H9.99501V11.055L8.49501 9.55501V14.455H6.99501V11.955H4.99501V14.455H3.49501V8.45501H4.99501V10.455H6.99501V8.45501H7.39501L1.94501 3.00501ZM13.495 9.95501V10.315L14.995 11.815V9.95501C14.995 9.15501 14.295 8.45501 13.495 8.45501H11.635L13.135 9.95501H13.495ZM17.995 12.455V14.455H17.635L16.495 13.315V8.45501H19.995C20.795 8.45501 21.495 9.15501 21.495 9.95501V10.955C21.495 11.555 21.095 12.055 20.595 12.355L21.495 14.455H19.995L19.095 12.455H17.995ZM19.995 9.95501H17.995V10.955H19.995V9.95501Z" fill="currentColor" fill-opacity="1"/>
</g>
</svg>
