<svg width="24" height="24" viewBox="0 0 24 24" fill="none" xmlns="http://www.w3.org/2000/svg">
<g id="invert_colors_off_24px">
<path id="icon/communication/invert_colors_off_24px" fill-rule="evenodd" clip-rule="evenodd" d="M11.9401 4.71V8.76L19.3401 16.16C20.4901 13.28 19.9301 9.88 17.5901 7.55L11.9401 1.88L8.50005 5.32L9.91005 6.73L11.9401 4.71ZM4.34005 3.98L2.93005 5.39L5.71005 8.17C3.17005 11.31 3.36005 15.92 6.28005 18.85C7.84005 20.41 9.89005 21.19 11.9401 21.19C13.7201 21.19 15.5001 20.6 16.9601 19.42L19.6601 22.12L21.0701 20.71L4.34005 3.98ZM7.70005 17.44C8.83005 18.58 10.3401 19.2 11.9401 19.2V14.4L7.15005 9.61C6.37005 10.64 5.94005 11.88 5.94005 13.2C5.94005 14.8 6.56005 16.3 7.70005 17.44Z" fill="currentColor" fill-opacity="1"/>
</g>
</svg>
