<svg width="24" height="24" viewBox="0 0 24 24" fill="none" xmlns="http://www.w3.org/2000/svg">
<g id="layers_clear_24px">
<path id="icon/maps/layers_clear_24px" fill-rule="evenodd" clip-rule="evenodd" d="M3.33999 1.89499L1.92999 3.30499L6.14999 7.52499L2.92999 10.035L11.93 17.035L14.03 15.405L15.45 16.825L11.92 19.575L4.54999 13.845L2.92999 15.105L11.93 22.105L16.88 18.255L20.66 22.035L22.07 20.625L3.33999 1.89499ZM17.67 10.035L11.93 5.56499L10.76 6.47499L9.33999 5.05499L11.93 3.03499L20.93 10.035L17.21 12.925L15.78 11.505L17.67 10.035ZM19.3 13.835L20.93 15.105L20.06 15.785L18.63 14.355L19.3 13.835ZM6.18999 10.035L11.93 14.505L12.6 13.975L7.57999 8.95499L6.18999 10.035Z" fill="currentColor" fill-opacity="1"/>
</g>
</svg>
