<svg width="24" height="24" viewBox="0 0 24 24" fill="none" xmlns="http://www.w3.org/2000/svg">
<g id="leak_remove_24px">
<path id="icon/image/leak_remove_24px" fill-rule="evenodd" clip-rule="evenodd" d="M2.92999 4.33999L4.33999 2.92999L21.07 19.66L19.66 21.07L16.82 18.23C16.26 19.04 15.93 20.01 15.93 21.07H13.93C13.93 19.46 14.48 17.98 15.39 16.8L13.96 15.37C12.69 16.93 11.93 18.91 11.93 21.07H9.92999C9.92999 18.36 10.92 15.88 12.55 13.96L10.04 11.45C8.12999 13.08 5.64999 14.07 2.92999 14.07V12.07C5.08999 12.07 7.06999 11.31 8.62999 10.04L7.19999 8.60999C6.01999 9.51999 4.53999 10.07 2.92999 10.07V8.06999C3.98999 8.06999 4.95999 7.73999 5.76999 7.17999L2.92999 4.33999ZM9.92999 3.06999H7.92999C7.92999 3.19521 7.91262 3.31609 7.89505 3.43834C7.88596 3.50159 7.87681 3.56521 7.86999 3.62999L9.54999 5.30999C9.79999 4.60999 9.92999 3.84999 9.92999 3.06999ZM13.93 3.06999H11.93C11.93 4.41999 11.62 5.69999 11.09 6.83999L12.58 8.32999C13.44 6.76999 13.93 4.97999 13.93 3.06999ZM20.93 12.07V10.07C19.02 10.07 17.23 10.56 15.66 11.42L17.15 12.91C18.3 12.38 19.58 12.07 20.93 12.07ZM20.93 14.07V16.07C20.8219 16.07 20.717 16.0829 20.6117 16.0959C20.5319 16.1058 20.4519 16.1157 20.37 16.12L18.69 14.44C19.39 14.2 20.14 14.07 20.93 14.07Z" fill="currentColor" fill-opacity="1"/>
</g>
</svg>
