<svg width="24" height="24" viewBox="0 0 24 24" fill="none" xmlns="http://www.w3.org/2000/svg">
<g id="mic_off_24px">
<path id="icon/av/mic_off_24px" fill-rule="evenodd" clip-rule="evenodd" d="M10.72 5.38999C10.72 4.72999 11.26 4.18999 11.92 4.18999C12.58 4.18999 13.12 4.72999 13.12 5.38999L13.11 9.29999L14.92 11.09V5.48999C14.92 3.82999 13.58 2.48999 11.92 2.48999C10.38 2.48999 9.12998 3.64999 8.95998 5.13999L10.72 6.89999V5.38999ZM18.92 11.49H17.22C17.22 12.07 17.12 12.62 16.95 13.13L18.22 14.4C18.66 13.52 18.92 12.53 18.92 11.49ZM2.91998 4.75999L4.32998 3.34999L21.08 20.1L19.67 21.51L15.47 17.31C14.69 17.76 13.83 18.08 12.92 18.21V21.49H10.92V18.21C7.63998 17.72 4.91998 14.9 4.91998 11.49H6.61998C6.61998 14.49 9.15998 16.59 11.92 16.59C12.73 16.59 13.52 16.4 14.23 16.07L12.57 14.41C12.36 14.46 12.15 14.49 11.92 14.49C10.26 14.49 8.91998 13.15 8.91998 11.49V10.76L2.91998 4.75999Z" fill="currentColor" fill-opacity="1"/>
</g>
</svg>
