<svg width="24" height="24" viewBox="0 0 24 24" fill="none" xmlns="http://www.w3.org/2000/svg">
<g id="music_off_24px">
<path id="icon/image/music_off_24px" fill-rule="evenodd" clip-rule="evenodd" d="M11.93 10.5094L4.33999 2.92938L2.92999 4.33938L11.93 13.3394V13.6194C10.99 13.0794 9.82999 12.8694 8.59999 13.2994C7.25999 13.7794 6.22999 14.9694 5.98999 16.3694C5.52999 19.1094 7.84999 21.4494 10.58 21.0194C12.54 20.7094 13.93 18.9094 13.93 16.9194V15.3394L19.66 21.0694L21.07 19.6594L11.93 10.5094ZM13.93 7.06938H17.93V3.06938H11.93V7.67938L13.93 9.67938V7.06938ZM7.92999 17.0694C7.92999 18.1694 8.82999 19.0694 9.92999 19.0694C11.03 19.0694 11.93 18.1694 11.93 17.0694C11.93 15.9694 11.03 15.0694 9.92999 15.0694C8.82999 15.0694 7.92999 15.9694 7.92999 17.0694Z" fill="currentColor" fill-opacity="1"/>
</g>
</svg>
