<svg width="24" height="24" viewBox="0 0 24 24" fill="none" xmlns="http://www.w3.org/2000/svg">
<g id="nature_24px">
<path id="icon/image/nature_24px" fill-rule="evenodd" clip-rule="evenodd" d="M12.885 16.035H12.915V19.915H18.915V21.915H4.91498V19.915H10.915V15.975C7.60498 15.425 5.08498 12.555 5.08498 9.085C5.08498 5.215 8.21498 2.085 12.085 2.085C15.955 2.085 19.085 5.215 19.085 9.085C19.085 12.675 16.375 15.635 12.885 16.035ZM12.085 4.085C9.32498 4.085 7.08498 6.325 7.08498 9.085C7.08498 11.845 9.32498 14.085 12.085 14.085C14.845 14.085 17.085 11.845 17.085 9.085C17.085 6.325 14.845 4.085 12.085 4.085Z" fill="currentColor" fill-opacity="1"/>
</g>
</svg>
