<svg width="24" height="24" viewBox="0 0 24 24" fill="none" xmlns="http://www.w3.org/2000/svg">
<g id="notifications_off_24px">
<path id="icon/social/notifications_off_24px" fill-rule="evenodd" clip-rule="evenodd" d="M15.3051 10.75C15.3051 8.27 13.7951 6.25 11.3051 6.25C11.1611 6.25 11.0229 6.26722 10.8861 6.28426L10.8861 6.28426C10.8423 6.28972 10.7987 6.29515 10.7551 6.3L9.11505 4.66L9.22005 4.6215L9.22007 4.62149L9.22008 4.62149C9.40799 4.55231 9.60297 4.48052 9.80505 4.43V3.75C9.80505 2.92 10.4751 2.25 11.3051 2.25C12.1351 2.25 12.8051 2.92 12.8051 3.75V4.43C15.6751 5.11 17.3051 7.68 17.3051 10.75V12.85L15.3051 10.85V10.75ZM13.3051 19.75C13.3051 20.85 12.4051 21.75 11.3051 21.75C10.2051 21.75 9.30505 20.85 9.30505 19.75H13.3051ZM4.71505 3.1L3.30505 4.51L6.11505 7.32C5.59505 8.32 5.30505 9.49 5.30505 10.75V15.75L3.30505 17.75V18.75H17.5451L19.2851 20.49L20.6951 19.08L4.71505 3.1ZM7.30505 16.75H15.3051V16.51L7.64505 8.85C7.42505 9.43 7.30505 10.07 7.30505 10.75V16.75Z" fill="currentColor" fill-opacity="1"/>
</g>
</svg>
