<svg width="24" height="24" viewBox="0 0 24 24" fill="none" xmlns="http://www.w3.org/2000/svg">
<g id="panorama_vertical_24px">
<path id="icon/image/panorama_vertical_24px" fill-rule="evenodd" clip-rule="evenodd" d="M18.295 12C18.295 15.09 18.835 18.18 19.935 21.12C19.975 21.23 19.995 21.33 20.005 21.43C20.005 21.76 19.765 22 19.375 22H4.625C4.225 22 3.995 21.76 3.995 21.43C3.995 21.34 4.015 21.23 4.065 21.12C5.155 18.18 5.705 15.09 5.705 12C5.705 8.91 5.155 5.82 4.055 2.88C4.015 2.77 3.995 2.67 3.995 2.57C3.995 2.23 4.225 2 4.625 2H19.365C19.765 2 19.995 2.23 19.995 2.57C19.995 2.66 19.975 2.77 19.935 2.88C18.845 5.82 18.295 8.91 18.295 12ZM7.69499 12C7.69499 14.72 7.305 17.4 6.535 20H17.445C16.675 17.4 16.285 14.72 16.285 12C16.285 9.28 16.675 6.6 17.445 4H6.535C7.305 6.6 7.69499 9.28 7.69499 12Z" fill="currentColor" fill-opacity="1"/>
</g>
</svg>
