<svg width="24" height="24" viewBox="0 0 24 24" fill="none" xmlns="http://www.w3.org/2000/svg">
<g id="rotate_left_24px">
<path id="icon/image/rotate_left_24px" fill-rule="evenodd" clip-rule="evenodd" d="M12.965 2.535V5.605C16.915 6.095 19.965 9.455 19.965 13.535C19.965 17.615 16.915 20.975 12.965 21.465V19.445C15.805 18.965 17.965 16.505 17.965 13.535C17.965 10.565 15.805 8.105 12.965 7.625V11.535L8.41497 7.085L12.965 2.535ZM5.66497 8.645L7.07497 10.065C6.54497 10.815 6.19497 11.665 6.05497 12.535H4.03497C4.20497 11.145 4.76497 9.805 5.66497 8.645ZM4.03497 14.535H6.05497C6.19497 15.415 6.54497 16.255 7.06497 17.005L5.65497 18.425C4.75497 17.265 4.20497 15.925 4.03497 14.535ZM7.06497 19.855C8.22497 20.755 9.57497 21.295 10.965 21.465V19.435C10.095 19.285 9.25497 18.945 8.50497 18.405L7.06497 19.855Z" fill="currentColor" fill-opacity="1"/>
</g>
</svg>
