<svg width="24" height="24" viewBox="0 0 24 24" fill="none" xmlns="http://www.w3.org/2000/svg">
<g id="screen_lock_rotation_24px">
<path id="icon/device/screen_lock_rotation_24px" fill-rule="evenodd" clip-rule="evenodd" d="M20.6537 9.5C21.2037 9.5 21.6537 9.05 21.6537 8.5V4.5C21.6537 3.95 21.2037 3.5 20.6537 3.5V3C20.6537 1.62 19.5337 0.5 18.1537 0.5C16.7737 0.5 15.6537 1.62 15.6537 3V3.5C15.1037 3.5 14.6537 3.95 14.6537 4.5V8.5C14.6537 9.05 15.1037 9.5 15.6537 9.5H20.6537ZM20.3337 10.7L22.9037 13.27C23.4937 13.85 23.4937 14.8 22.9037 15.39L16.5437 21.75C15.9637 22.34 15.0137 22.34 14.4237 21.75L2.40375 9.73C1.81375 9.15 1.81375 8.2 2.40375 7.61L8.76375 1.25C9.34375 0.66 10.2937 0.66 10.8837 1.25L13.3337 3.7L11.9237 5.11L9.82375 3.01L4.16375 8.67L15.4837 19.99L21.1437 14.33L18.9237 12.11L20.3337 10.7ZM2.15375 12.5C2.51375 16.26 4.85375 19.44 8.12375 20.98L9.45375 19.65L13.2637 23.47L12.6037 23.5C6.31375 23.5 1.16375 18.66 0.653748 12.5H2.15375ZM18.1537 1.3C17.2137 1.3 16.4537 2.06 16.4537 3V3.5H19.8537V3C19.8537 2.06 19.0937 1.3 18.1537 1.3Z" fill="currentColor" fill-opacity="1"/>
</g>
</svg>
