<svg width="24" height="24" viewBox="0 0 24 24" fill="none" xmlns="http://www.w3.org/2000/svg">
<g id="settings_bluetooth_24px">
<path id="icon/action/settings_bluetooth_24px" fill-rule="evenodd" clip-rule="evenodd" d="M12.645 0L18.355 5.71L14.055 10L18.355 14.29L12.645 20H11.645V12.41L7.05502 17L5.64502 15.59L11.235 10L5.64502 4.41L7.05502 3L11.645 7.59V0H12.645ZM9.64502 24H7.64502V22H9.64502V24ZM13.645 22V24H11.645V22H13.645ZM15.645 24H17.645V22H15.645V24ZM13.645 3.83L15.525 5.71L13.645 7.59V3.83ZM13.645 16.17L15.525 14.29L13.645 12.41V16.17Z" fill="currentColor" fill-opacity="1"/>
</g>
</svg>
