<svg width="24" height="24" viewBox="0 0 24 24" fill="none" xmlns="http://www.w3.org/2000/svg">
<g id="slow_motion_video_24px">
<path id="icon/av/slow_motion_video_24px" fill-rule="evenodd" clip-rule="evenodd" d="M10.975 2.05V4.07C9.51502 4.25 8.18502 4.83 7.07502 5.69L5.65502 4.26C7.13502 3.05 8.96502 2.25 10.975 2.05ZM13.025 9.79L9.97502 7.5V16.5L13.025 14.21L15.975 12L13.025 9.79ZM5.66502 7.1L4.23502 5.68C3.02502 7.16 2.22502 8.99 2.02502 11H4.04502C4.22502 9.54 4.80502 8.21 5.66502 7.1ZM2.02502 13H4.04502C4.22502 14.46 4.80502 15.79 5.66502 16.89L4.23502 18.32C3.02502 16.84 2.22502 15.01 2.02502 13ZM5.65502 19.74C7.13502 20.95 8.97502 21.75 10.975 21.95V19.93C9.51502 19.75 8.18502 19.17 7.07502 18.31L5.65502 19.74ZM13.025 21.95C18.055 21.42 21.975 17.16 21.975 12C21.975 6.84 18.055 2.58 13.025 2.05V4.07C16.945 4.59 19.975 7.95 19.975 12C19.975 16.05 16.945 19.41 13.025 19.93V21.95Z" fill="currentColor" fill-opacity="1"/>
</g>
</svg>
