<svg width="24" height="24" viewBox="0 0 24 24" fill="none" xmlns="http://www.w3.org/2000/svg">
<g id="snooze_24px">
<path id="icon/av/snooze_24px" fill-rule="evenodd" clip-rule="evenodd" d="M2.05524 5.74871L3.33644 7.28451L7.94374 3.44091L6.66264 1.90511L2.05524 5.74871ZM16.0561 3.44141L17.3373 1.90561L21.9447 5.74921L20.6635 7.28501L16.0561 3.44141ZM8.99974 11.0949H12.6297L8.99974 15.2949V17.0949H14.9997V15.0949H11.3697L14.9997 10.8949V9.09491H8.99974V11.0949ZM11.9997 6.09491C15.8597 6.09491 18.9997 9.23491 18.9997 13.0949C18.9997 16.9549 15.8597 20.0949 11.9997 20.0949C8.13974 20.0949 4.99974 16.9549 4.99974 13.0949C4.99974 9.23491 8.13974 6.09491 11.9997 6.09491ZM2.99974 13.0949C2.99974 8.12491 7.02974 4.09491 11.9997 4.09491C16.9697 4.09491 20.9997 8.12491 20.9997 13.0949C20.9997 18.0649 16.9697 22.0949 11.9997 22.0949C7.02974 22.0949 2.99974 18.0649 2.99974 13.0949Z" fill="currentColor" fill-opacity="1"/>
</g>
</svg>
