<svg width="24" height="24" viewBox="0 0 24 24" fill="none" xmlns="http://www.w3.org/2000/svg">
<g id="speaker_notes_off_24px">
<path id="icon/action/speaker_notes_off_24px" fill-rule="evenodd" clip-rule="evenodd" d="M2.34005 0.929993L0.930054 2.33999L2.94005 4.34999L2.93005 21.34L6.93005 17.34H15.9301L21.6601 23.07L23.0701 21.66L2.34005 0.929993ZM20.9301 15.34V3.33999H7.59005L5.59005 1.33999H20.9301C22.0301 1.33999 22.9301 2.23999 22.9301 3.33999V15.34C22.9301 16.24 22.3201 17 21.5001 17.25L19.5901 15.34H20.9301ZM8.93005 11.34H6.93005V13.34H8.93005V11.34ZM18.9301 8.33999H12.5901L14.5901 10.34H18.9301V8.33999ZM10.9301 5.33999H18.9301V7.33999H11.5901L10.9301 6.67999V5.33999ZM4.93005 16.51L6.10005 15.34H13.9301L8.93005 10.34H6.93005V8.33999L4.93005 6.33999V16.51Z" fill="currentColor" fill-opacity="1"/>
</g>
</svg>
