<svg width="24" height="24" viewBox="0 0 24 24" fill="none" xmlns="http://www.w3.org/2000/svg">
<g id="sync_disabled_24px">
<path id="icon/notification/sync_disabled_24px" fill-rule="evenodd" clip-rule="evenodd" d="M3.31995 4.73001L4.72995 3.32001L20.6799 19.27L19.2699 20.68L16.6899 18.1C16.0099 18.52 15.2599 18.85 14.4599 19.06V16.97C14.7199 16.87 14.9699 16.76 15.2199 16.63L7.13995 8.55001C6.70995 9.38001 6.45995 10.32 6.45995 11.32C6.45995 12.98 7.13995 14.47 8.21995 15.56L10.4599 13.32V19.32H4.45995L6.81995 16.96C5.36995 15.52 4.45995 13.53 4.45995 11.32C4.45995 9.76001 4.90995 8.31001 5.67995 7.09001L3.31995 4.73001ZM20.4599 11.32C20.4599 9.11001 19.5499 7.12001 18.0999 5.68001L20.4599 3.32001H14.4599V9.32001L16.6999 7.08001C17.7799 8.17001 18.4599 9.66001 18.4599 11.32C18.4599 12.17 18.2699 12.97 17.9499 13.7L19.4499 15.2C20.0899 14.06 20.4599 12.73 20.4599 11.32ZM10.4599 5.67001V3.58001C9.79995 3.75001 9.16995 4.01001 8.57995 4.33001L10.0799 5.83001C10.1449 5.80501 10.2074 5.77751 10.2699 5.75001C10.3324 5.72251 10.3949 5.69501 10.4599 5.67001Z" fill="currentColor" fill-opacity="1"/>
</g>
</svg>
