<svg width="24" height="24" viewBox="0 0 24 24" fill="none" xmlns="http://www.w3.org/2000/svg">
<g id="unsubscribe_24px">
<path id="icon/communication/unsubscribe_24px" fill-rule="evenodd" clip-rule="evenodd" d="M20.4884 5.49817V14.5382C21.2684 15.3282 21.6784 16.4782 21.4284 17.7182C21.1584 19.0582 20.0684 20.1582 18.7284 20.4282C16.6484 20.8482 14.8284 19.4182 14.5484 17.4982H4.49841C3.39841 17.4982 2.49841 16.5982 2.49841 15.4982V5.49817C2.49841 4.39817 3.39841 3.49817 4.49841 3.49817H18.4884C19.5884 3.49817 20.4884 4.39817 20.4884 5.49817ZM11.4984 8.99817L18.4884 5.49817H4.49841L11.4984 8.99817ZM14.8484 15.4982H4.49841V7.49817L11.4984 10.9982L18.4984 7.49817V13.5482C18.4627 13.5437 18.4264 13.5387 18.3898 13.5337C18.2625 13.5163 18.1304 13.4982 17.9984 13.4982C16.6084 13.4982 15.4084 14.3182 14.8484 15.4982ZM15.9984 16.4982V17.4982H19.9984V16.4982H15.9984Z" fill="currentColor" fill-opacity="1"/>
</g>
</svg>
