<svg width="24" height="24" viewBox="0 0 24 24" fill="none" xmlns="http://www.w3.org/2000/svg">
<g id="voice_over_off_24px">
<path id="icon/action/voice_over_off_24px" fill-rule="evenodd" clip-rule="evenodd" d="M18.4423 4.13L20.0723 2.5C23.9323 6.49 23.9623 12.44 20.2223 16.33L18.5823 14.69C21.2023 11.52 21.1623 7.1 18.4423 4.13ZM15.0823 7.55L16.7623 5.86C18.7423 8.01 18.7723 10.97 16.8723 12.99L15.1723 11.29C15.9123 10.13 15.8823 8.68 15.0823 7.55ZM9.43232 5.54L12.9623 9.07C12.7623 7.21 11.2923 5.74 9.43232 5.54ZM3.00232 4.77L4.41232 3.36L21.1423 20.09L19.7323 21.5L16.7123 18.48C16.8923 18.8 17.0023 19.13 17.0023 19.5V21.5H1.00232V19.5C1.00232 16.84 6.33232 15.5 9.00232 15.5C10.7823 15.5 13.7423 16.1 15.5123 17.28L11.1123 12.88C10.5023 13.27 9.78232 13.5 9.00232 13.5C6.79232 13.5 5.00232 11.71 5.00232 9.5C5.00232 8.72 5.23232 8 5.62232 7.39L3.00232 4.77ZM3.00232 19.5C3.22232 18.78 6.31232 17.5 9.00232 17.5C11.7023 17.5 14.8023 18.79 15.0023 19.5H3.00232ZM7.00232 9.5C7.00232 10.6 7.90232 11.5 9.00232 11.5C9.22232 11.5 9.42232 11.46 9.62232 11.39L7.11232 8.88C7.04232 9.08 7.00232 9.28 7.00232 9.5Z" fill="currentColor" fill-opacity="1"/>
</g>
</svg>
