<svg width="24" height="24" viewBox="0 0 24 24" fill="none" xmlns="http://www.w3.org/2000/svg">
<g id="volume_off_24px">
<path id="icon/av/volume_off_24px" fill-rule="evenodd" clip-rule="evenodd" d="M4.34005 2.935L2.93005 4.345L7.29005 8.705L7.00005 9.005H3.00005V15.005H7.00005L12.0001 20.005V13.415L16.1801 17.595C15.5301 18.085 14.8001 18.475 14.0001 18.705V20.765C15.3401 20.465 16.5701 19.845 17.6101 19.015L19.6601 21.065L21.0701 19.655L4.34005 2.935ZM10.0001 15.175L7.83005 13.005H5.00005V11.005H7.83005L8.71005 10.125L10.0001 11.415V15.175ZM18.5901 14.345C18.8501 13.615 19.0001 12.825 19.0001 12.005C19.0001 8.835 16.8901 6.155 14.0001 5.295V3.235C18.0101 4.145 21.0001 7.725 21.0001 12.005C21.0001 13.395 20.6801 14.705 20.1201 15.875L18.5901 14.345ZM12.0001 4.005L10.1201 5.885L12.0001 7.765V4.005ZM14.0001 7.975C15.4801 8.715 16.5001 10.235 16.5001 12.005C16.5001 12.085 16.4901 12.165 16.4801 12.245L14.0001 9.765V7.975Z" fill="currentColor" fill-opacity="1"/>
</g>
</svg>
