<svg width="24" height="24" viewBox="0 0 24 24" fill="none" xmlns="http://www.w3.org/2000/svg">
<g id="wb_auto_24px">
<path id="icon/image/wb_auto_24px" fill-rule="evenodd" clip-rule="evenodd" d="M22.1 7L20.9 13.29L19.4 7H17.8L16.31 13.29L15.1 7H14.34L14.33 7.01C12.86 5.18 10.63 4 8.09998 4C3.67998 4 0.0999756 7.58 0.0999756 12C0.0999756 16.42 3.67998 20 8.09998 20C11.06 20 13.65 18.39 15.03 16C15.045 15.97 15.0575 15.94 15.07 15.91C15.0825 15.88 15.095 15.85 15.11 15.82C15.135 15.78 15.1575 15.7375 15.18 15.695L15.18 15.695L15.18 15.695C15.2025 15.6525 15.225 15.61 15.25 15.57L15.35 16H17.1L18.6 9.9L20.1 16H21.85L23.9 7H22.1ZM3.89998 16L7.09998 7H9.09998L12.3 16H10.4L9.69998 14H6.49998L5.79998 16H3.89998ZM8.09998 9L6.94998 12.65H9.24998L8.09998 9ZM8.09998 18C10.45 18 12.48 16.64 13.47 14.67C13.87 13.86 14.1 12.96 14.1 12C14.1 8.69 11.41 6 8.09998 6C4.78998 6 2.09998 8.69 2.09998 12C2.09998 15.31 4.78998 18 8.09998 18Z" fill="currentColor" fill-opacity="1"/>
</g>
</svg>
