<svg width="24" height="24" viewBox="0 0 24 24" fill="none" xmlns="http://www.w3.org/2000/svg">
<g id="wb_cloudy_24px">
<path id="icon/image/wb_cloudy_24px" fill-rule="evenodd" clip-rule="evenodd" d="M5.34278 8.04C6.59226 5.64 9.11121 4 12 4C15.6385 4 18.6672 6.59 19.3569 10.04C21.9459 10.22 23.995 12.36 23.995 15C23.995 17.76 21.7559 20 18.9971 20H6.00251C2.69388 20 0.00500488 17.31 0.00500488 14C0.00500488 10.91 2.34403 8.36 5.34278 8.04ZM17.3978 10.43C16.888 7.86 14.6089 6 12 6C9.94086 6 8.07164 7.14 7.13204 8.97L6.63224 9.92L5.56269 10.03C3.53353 10.24 2.00417 11.95 2.00417 14C2.00417 16.21 3.79343 18 6.00251 18H18.9971C20.6464 18 21.9958 16.65 21.9958 15C21.9958 13.45 20.7764 12.15 19.217 12.04L17.6976 11.93L17.3978 10.43Z" fill="currentColor" fill-opacity="1"/>
</g>
</svg>
