<svg width="24" height="24" viewBox="0 0 24 24" fill="none" xmlns="http://www.w3.org/2000/svg">
<g id="wb_iridescent_24px">
<path id="icon/image/wb_iridescent_24px" fill-rule="evenodd" clip-rule="evenodd" d="M10.995 1H12.995V4H10.995V1ZM18.995 15H4.99504V9H18.995V15ZM16.995 11H6.99504V13H16.995V11ZM19.035 3.6L20.455 5.01L18.655 6.8L17.245 5.39L19.035 3.6ZM10.995 20H12.995V23H10.995V20ZM19.025 20.51L17.235 18.71L18.645 17.3L20.445 19.09L19.025 20.51ZM4.95424 3.5949L6.74324 5.3839L5.33614 6.7909L3.54704 5.002L4.95424 3.5949ZM4.95504 20.5L3.54504 19.08L5.33504 17.29L6.74504 18.7L4.95504 20.5Z" fill="currentColor" fill-opacity="1"/>
</g>
</svg>
