<svg width="24" height="24" viewBox="0 0 24 24" fill="none" xmlns="http://www.w3.org/2000/svg">
<g id="work_off_24px">
<path id="icon/action/work_off_24px" fill-rule="evenodd" clip-rule="evenodd" d="M2.83004 1.41998L1.42004 2.82998L4.17004 5.57998H3.43004C2.32004 5.57998 1.44004 6.46998 1.44004 7.57998L1.43004 18.58C1.43004 19.69 2.32004 20.58 3.43004 20.58H19.17L21.17 22.58L22.58 21.17L2.83004 1.41998ZM9.43004 3.57998H13.43V5.57998H9.83004L11.83 7.57998H19.43V15.18L21.43 17.18V7.57998C21.43 6.46998 20.54 5.57998 19.43 5.57998H15.43V3.57998C15.43 2.46998 14.54 1.57998 13.43 1.57998H9.43004C8.44004 1.57998 7.63004 2.27998 7.47004 3.21998L9.43004 5.17998V3.57998ZM3.43004 7.57998V18.58H17.17L6.17004 7.57998H3.43004Z" fill="currentColor" fill-opacity="1"/>
</g>
</svg>
